<svg width="40" height="40" viewBox="0 0 40 40" fill="none" xmlns="http://www.w3.org/2000/svg">
<g id="tabler-icon-briefcase-2">
<path id="Vector" d="M13.3333 11.6667V8.33333C13.3333 7.44928 13.6845 6.60143 14.3096 5.97631C14.9348 5.35119 15.7826 5 16.6667 5H23.3333C24.2174 5 25.0652 5.35119 25.6904 5.97631C26.3155 6.60143 26.6667 7.44928 26.6667 8.33333V11.6667M5 15C5 14.1159 5.35119 13.2681 5.97631 12.643C6.60143 12.0179 7.44928 11.6667 8.33333 11.6667H31.6667C32.5507 11.6667 33.3986 12.0179 34.0237 12.643C34.6488 13.2681 35 14.1159 35 15V30C35 30.8841 34.6488 31.7319 34.0237 32.357C33.3986 32.9821 32.5507 33.3333 31.6667 33.3333H8.33333C7.44928 33.3333 6.60143 32.9821 5.97631 32.357C5.35119 31.7319 5 30.8841 5 30V15Z" stroke="#4BBB7A" style="stroke:#4BBB7A;stroke:color(display-p3 0.2941 0.7333 0.4784);stroke-opacity:1;" stroke-width="2" stroke-linecap="round" stroke-linejoin="round"/>
</g>
</svg>
