<svg width="40" height="40" viewBox="0 0 40 40" fill="none" xmlns="http://www.w3.org/2000/svg">
<path d="M6.66602 21.6666C7.20768 25.8866 9.80102 29.6349 13.3327 31.6666M33.3327 18.3332C32.9251 15.4002 31.5645 12.6826 29.4604 10.599C27.3564 8.51539 24.6256 7.18137 21.6888 6.80242C18.752 6.42348 15.7721 7.02064 13.208 8.50191C10.644 9.98318 8.6381 12.2664 7.49935 14.9998M6.66602 8.33325V14.9999H13.3327M19.9993 24.9999H23.3327C23.7747 24.9999 24.1986 25.1755 24.5112 25.4881C24.8238 25.8006 24.9993 26.2246 24.9993 26.6666V28.3333C24.9993 28.7753 24.8238 29.1992 24.5112 29.5118C24.1986 29.8243 23.7747 29.9999 23.3327 29.9999H21.666C21.224 29.9999 20.8001 30.1755 20.4875 30.4881C20.1749 30.8006 19.9993 31.2246 19.9993 31.6666V33.3333C19.9993 33.7753 20.1749 34.1992 20.4875 34.5118C20.8001 34.8243 21.224 34.9999 21.666 34.9999H24.9993M29.9994 24.9999V28.3333C29.9994 28.7753 30.1749 29.1992 30.4875 29.5118C30.8001 29.8243 31.224 29.9999 31.666 29.9999H33.3327M34.9994 24.9999V34.9999" stroke="#4BBB7A" style="stroke:#4BBB7A;stroke:color(display-p3 0.2941 0.7333 0.4784);stroke-opacity:1;" stroke-width="2" stroke-linecap="round" stroke-linejoin="round"/>
</svg>
