<svg width="40" height="40" viewBox="0 0 40 40" fill="none" xmlns="http://www.w3.org/2000/svg">
<g id="tabler-icon-arrow-big-up-lines">
<path id="Vector" d="M15.0007 35.0009H25.0007M15.0007 30.0009H25.0007M15.0004 20.0011H9.02373C8.69415 20.001 8.37199 19.9032 8.09797 19.7201C7.82395 19.5369 7.61039 19.2766 7.48427 18.9721C7.35815 18.6676 7.32515 18.3326 7.38943 18.0093C7.45371 17.6861 7.61238 17.3891 7.8454 17.1561L18.8221 6.17938C19.1346 5.86693 19.5585 5.69141 20.0004 5.69141C20.4423 5.69141 20.8662 5.86693 21.1787 6.17938L32.1554 17.1561C32.3884 17.3891 32.5471 17.6861 32.6114 18.0093C32.6757 18.3326 32.6426 18.6676 32.5165 18.9721C32.3904 19.2766 32.1768 19.5369 31.9028 19.7201C31.6288 19.9032 31.3067 20.001 30.9771 20.0011H25.0004V25.0011H15.0004V20.0011Z" stroke="#4BBB7A" style="stroke:#4BBB7A;stroke:color(display-p3 0.2941 0.7333 0.4784);stroke-opacity:1;" stroke-width="2" stroke-linecap="round" stroke-linejoin="round"/>
</g>
</svg>
