<svg width="40" height="40" viewBox="0 0 40 40" fill="none" xmlns="http://www.w3.org/2000/svg">
<g id="tabler-icon-thumb-up">
<path id="Vector" d="M11.6667 18.3327V31.666C11.6667 32.108 11.4911 32.532 11.1785 32.8445C10.866 33.1571 10.442 33.3327 10 33.3327H6.66667C6.22464 33.3327 5.80072 33.1571 5.48816 32.8445C5.17559 32.532 5 32.108 5 31.666V19.9993C5 19.5573 5.17559 19.1334 5.48816 18.8208C5.80072 18.5083 6.22464 18.3327 6.66667 18.3327H11.6667ZM11.6667 18.3327C13.4348 18.3327 15.1305 17.6303 16.3807 16.3801C17.631 15.1298 18.3333 13.4341 18.3333 11.666V9.99935C18.3333 9.11529 18.6845 8.26745 19.3096 7.64233C19.9348 7.0172 20.7826 6.66602 21.6667 6.66602C22.5507 6.66602 23.3986 7.0172 24.0237 7.64233C24.6488 8.26745 25 9.11529 25 9.99935V18.3327H30C30.8841 18.3327 31.7319 18.6839 32.357 19.309C32.9821 19.9341 33.3333 20.782 33.3333 21.666L31.6667 29.9994C31.427 31.0218 30.9723 31.8998 30.3711 32.501C29.7699 33.1022 29.0547 33.3941 28.3333 33.3327H16.6667C15.3406 33.3327 14.0688 32.8059 13.1311 31.8682C12.1935 30.9305 11.6667 29.6588 11.6667 28.3327" stroke="#4BBB7A" style="stroke:#4BBB7A;stroke:color(display-p3 0.2941 0.7333 0.4784);stroke-opacity:1;" stroke-width="2" stroke-linecap="round" stroke-linejoin="round"/>
</g>
</svg>
