<svg width="40" height="40" viewBox="0 0 40 40" fill="none" xmlns="http://www.w3.org/2000/svg">
<g id="tabler-icon-map-pin">
<g id="Vector">
<path d="M14.9993 18.3329C14.9993 19.659 15.5261 20.9308 16.4638 21.8685C17.4015 22.8061 18.6733 23.3329 19.9993 23.3329C21.3254 23.3329 22.5972 22.8061 23.5349 21.8685C24.4726 20.9308 24.9993 19.659 24.9993 18.3329C24.9993 17.0068 24.4726 15.7351 23.5349 14.7974C22.5972 13.8597 21.3254 13.3329 19.9993 13.3329C18.6733 13.3329 17.4015 13.8597 16.4638 14.7974C15.5261 15.7351 14.9993 17.0068 14.9993 18.3329Z" stroke="#4BBB7A" style="stroke:#4BBB7A;stroke:color(display-p3 0.2941 0.7333 0.4784);stroke-opacity:1;" stroke-width="2" stroke-linecap="round" stroke-linejoin="round"/>
<path d="M29.4277 27.7612L22.356 34.8328C21.731 35.4572 20.8837 35.808 20.0002 35.808C19.1167 35.808 18.2694 35.4572 17.6444 34.8328L10.571 27.7612C8.70639 25.8965 7.43658 23.5207 6.92217 20.9343C6.40775 18.3479 6.67184 15.667 7.68103 13.2307C8.69022 10.7944 10.3992 8.71208 12.5918 7.24702C14.7845 5.78197 17.3623 5 19.9994 5C22.6364 5 25.2142 5.78197 27.4069 7.24702C29.5995 8.71208 31.3085 10.7944 32.3177 13.2307C33.3269 15.667 33.591 18.3479 33.0765 20.9343C32.5621 23.5207 31.2923 25.8965 29.4277 27.7612Z" stroke="#4BBB7A" style="stroke:#4BBB7A;stroke:color(display-p3 0.2941 0.7333 0.4784);stroke-opacity:1;" stroke-width="2" stroke-linecap="round" stroke-linejoin="round"/>
</g>
</g>
</svg>
